# File created by Blade
# Date/Time:  Tue Sep 30 19:36:36 2014
#---------------------------------------------------------
:version 1.10
:name HOM
:units
  mass 1.0
  length 1.000000
  angle deg
:documentation
     Acclaim Skeleton File
:root
   axis xyz
   order TX TY TZ RX RY RZ
   position 0.000000 0.000000 0.000000
   orientation 0 0 0
:bonedata
   begin
      id 1
      name Spine_dum
      direction 0.000000 1.000000 0.000000
      length 3.241213
      axis 0.0 0.0 0.0 xyz
   end
   begin
      id 2
      name LeftUpLeg_dum
      direction 1.000000 0.000000 0.000000
      length 3.434019
      axis 0.0 0.0 0.0 xyz
   end
   begin
      id 3
      name RightUpLeg_dum
      direction -1.000000 0.000000 0.000000
      length 3.434019
      axis 0.0 0.0 0.0 xyz
   end
   begin
      id 4
      name Spine
      direction 0.000000 1.000000 0.000000
      length 0.000000
      axis 0.0 0.0 0.0 xyz
      dof rx ry rz
   end
   begin
      id 5
      name Spine_dum1
      direction 0.000000 1.000000 0.000000
      length 18.382958
      axis 0.0 0.0 0.0 xyz
   end
   begin
      id 6
      name Spine_dum2
      direction 0.000000 1.000000 0.000000
      length 12.828261
      axis 0.0 0.0 0.0 xyz
   end
   begin
      id 7
      name Spine_dum3
      direction 0.000000 1.000000 0.000000
      length 12.828261
      axis 0.0 0.0 0.0 xyz
   end
   begin
      id 8
      name Head
      direction 0.000000 1.000000 0.000000
      length 4.527550
      axis 0.0 0.0 0.0 xyz
      dof rx ry rz
   end
   begin
      id 9
      name LeftShoulder
      direction 1.000000 0.000000 0.000000
      length 7.748055
      axis 0.0 0.0 -90.0 xyz
      dof rx ry rz
   end
   begin
      id 10
      name LeftArm
      direction 1.000000 0.000000 0.000000
      length 10.635614
      axis 0.0 0.0 -90.0 xyz
      dof rx ry rz
   end
   begin
      id 11
      name LeftForeArm
      direction 1.000000 0.000000 0.000000
      length 8.346755
      axis 0.0 0.0 -90.0 xyz
      dof ry rz rx
   end
   begin
      id 12
      name LeftHand
      direction 0.000000 0.000000 0.000000
      length 0.000000
      axis 0.0 0.0 -90.0 xyz
      dof rx ry rz
   end
   begin
      id 13
      name LeftHand_dum1
      direction 0.000000 0.000000 0.000000
      length 0.000000
      axis 0.0 0.0 -90.0 xyz
   end
   begin
      id 14
      name LeftHand_dum2
      direction 1.000000 0.000000 0.000000
      length 3.937000
      axis 0.0 0.0 -90.0 xyz
   end
   begin
      id 15
      name LeftHandThumb1
      direction 0.000000 0.000000 1.000000
      length 3.937000
      axis 0.0 0.0 -90.0 xyz
      dof rx rz ry
   end
   begin
      id 16
      name RightShoulder
      direction -1.000000 0.000000 0.000000
      length 7.748055
      axis 0.0 0.0 90.0 xyz
      dof rx ry rz
   end
   begin
      id 17
      name RightArm
      direction -1.000000 0.000000 0.000000
      length 10.635614
      axis 0.0 0.0 90.0 xyz
      dof rx ry rz
   end
   begin
      id 18
      name RightForeArm
      direction -1.000000 0.000000 0.000000
      length 8.346755
      axis 0.0 0.0 90.0 xyz
      dof ry rz rx
   end
   begin
      id 19
      name RightHand
      direction 0.000000 0.000000 0.000000
      length 0.000000
      axis 0.0 0.0 90.0 xyz
      dof rx ry rz
   end
   begin
      id 20
      name RightHand_dum1
      direction 0.000000 0.000000 0.000000
      length 0.000000
      axis 0.0 0.0 90.0 xyz
   end
   begin
      id 21
      name RightHand_dum2
      direction -1.000000 0.000000 0.000000
      length 3.937000
      axis 0.0 0.0 90.0 xyz
   end
   begin
      id 22
      name RightHandThumb1
      direction 0.000000 0.000000 1.000000
      length 3.937000
      axis 0.0 0.0 90.0 xyz
      dof rx rz ry
   end
   begin
      id 23
      name LeftUpLeg
      direction 0.000000 -1.000000 0.000000
      length 15.713025
      axis 0.0 0.0 0.0 xyz
      dof rx ry rz
   end
   begin
      id 24
      name LeftLeg
      direction 0.000000 -1.000000 0.000000
      length 14.435119
      axis 0.0 0.0 0.0 xyz
      dof rx ry rz
   end
   begin
      id 25
      name LeftFoot
      direction 0.000000 -0.258819 0.965926
      length 4.938895
      axis 15.0 0.0 0.0 xyz
      dof rx ry rz
   end
   begin
      id 26
      name LeftToeBase
      direction 0.000000 0.000000 1.000000
      length 2.952750
      axis 0.0 0.0 0.0 xyz
      dof rx ry rz
   end
   begin
      id 27
      name RightUpLeg
      direction 0.000000 -1.000000 0.000000
      length 15.713025
      axis 0.0 0.0 0.0 xyz
      dof rx ry rz
   end
   begin
      id 28
      name RightLeg
      direction 0.000000 -1.000000 0.000000
      length 14.435119
      axis 0.0 0.0 0.0 xyz
      dof rx ry rz
   end
   begin
      id 29
      name RightFoot
      direction 0.000000 -0.258819 0.965926
      length 4.938895
      axis 15.0 0.0 0.0 xyz
      dof rx ry rz
   end
   begin
      id 30
      name RightToeBase
      direction 0.000000 0.000000 1.000000
      length 2.952750
      axis 0.0 0.0 0.0 xyz
      dof rx ry rz
   end
:hierarchy
   begin
      root Spine_dum LeftUpLeg_dum RightUpLeg_dum
      Spine_dum Spine
      LeftUpLeg_dum LeftUpLeg
      RightUpLeg_dum RightUpLeg
      Spine Spine_dum1 Spine_dum2 Spine_dum3
      Spine_dum1 Head
      Spine_dum2 LeftShoulder
      Spine_dum3 RightShoulder
      LeftShoulder LeftArm
      LeftArm LeftForeArm
      LeftForeArm LeftHand
      LeftHand LeftHand_dum1 LeftHand_dum2
      LeftHand_dum1 LeftHandThumb1
      RightShoulder RightArm
      RightArm RightForeArm
      RightForeArm RightHand
      RightHand RightHand_dum1 RightHand_dum2
      RightHand_dum1 RightHandThumb1
      LeftUpLeg LeftLeg
      LeftLeg LeftFoot
      LeftFoot LeftToeBase
      RightUpLeg RightLeg
      RightLeg RightFoot
      RightFoot RightToeBase
   end

# File created by Blade
# Date/Time:  Tue Sep 23 19:22:32 2014
# Frame Rate: 120.000 fps
#------------------------------------------------------
:FULLY-SPECIFIED
:DEGREES
1425
root 1.603815 33.119793 4.641621 76.121338 -28.635885 -19.364090
Spine -43.455731 -12.382427 10.089984
Head -11.290988 16.015748 18.829103
LeftShoulder -19.901044 42.540002 19.494463
LeftArm 44.391292 -50.867562 -95.279221
LeftForeArm 23.661534 -0.000000 105.094315
LeftHand 32.543297 -0.000000 27.445667
LeftHandThumb1 -26.253704 0.000000 33.147579
RightShoulder -47.839158 -53.052783 18.311574
RightArm 33.900965 18.439851 102.263184
RightForeArm 109.478292 0.000000 -12.432123
RightHand 9.200264 -0.000000 17.722249
RightHandThumb1 -24.326973 -0.000000 -32.862282
LeftUpLeg -69.569202 7.563962 14.191827
LeftLeg 19.183979 -0.000000 -0.000000
LeftFoot -19.340950 8.275506 -4.569094
LeftToeBase -2.527500 -0.000000 0.000000
RightUpLeg -18.114762 0.860442 -15.141002
RightLeg 126.594161 -0.000000 -0.000000
RightFoot 38.860774 27.614190 -4.216499
RightToeBase 21.753325 -0.000000 -0.000000
1426
root 1.654511 33.101205 4.676094 75.461262 -28.324502 -18.603314
Spine -43.303390 -13.077206 10.401615
Head -11.232873 16.234588 18.265474
LeftShoulder -19.842959 42.530008 19.529813
LeftArm 44.418525 -50.651002 -95.366299
LeftForeArm 24.190956 0.000000 104.894052
LeftHand 32.213352 -0.000000 27.864083
LeftHandThumb1 -26.253704 0.000000 33.147579
RightShoulder -48.278106 -53.006120 18.842054
RightArm 33.798010 18.487431 102.702240
RightForeArm 110.389323 -0.000000 -12.707472
RightHand 8.544050 -0.000000 17.145515
RightHandThumb1 -24.326973 -0.000000 -32.862282
LeftUpLeg -69.661605 8.034493 11.900258
LeftLeg 19.058313 -0.000000 -0.000000
LeftFoot -19.789394 10.682114 -4.649488
LeftToeBase -1.807071 -0.000000 0.000000
RightUpLeg -17.452041 -0.824265 -13.975802
RightLeg 126.494559 -0.000000 -0.000000
RightFoot 38.879760 28.357850 -3.678284
RightToeBase 21.341992 -0.000000 -0.000000
1427
root 1.697606 33.079867 4.716733 74.973613 -28.034635 -17.986847
Spine -43.292962 -13.596631 10.695137
Head -11.070042 16.446655 17.820651
LeftShoulder -19.736246 42.545334 19.590056
LeftArm 44.394050 -50.362627 -95.334539
LeftForeArm 24.999049 -0.000000 104.742817
LeftHand 31.563153 0.000000 28.592667
LeftHandThumb1 -26.253704 0.000000 33.147579
RightShoulder -48.639609 -52.898038 19.394607
RightArm 33.525325 18.585485 102.899751
RightForeArm 111.494375 0.000000 -12.818289
RightHand 8.197075 -0.000000 16.620921
RightHandThumb1 -24.326973 -0.000000 -32.862282
LeftUpLeg -69.908557 8.699003 9.490041
LeftLeg 19.088084 -0.000000 -0.000000
LeftFoot -20.162208 13.128217 -4.567323
LeftToeBase -1.144430 -0.000000 0.000000
RightUpLeg -16.899890 -2.347240 -12.877055
RightLeg 126.259142 -0.000000 -0.000000
RightFoot 38.997254 28.856262 -3.199386
RightToeBase 20.845659 -0.000000 -0.000000
1428
root 1.737481 33.055250 4.763296 74.683359 -27.804654 -17.477370
Spine -43.497870 -13.998946 10.977782
Head -10.712365 16.671732 17.574173
LeftShoulder -19.569746 42.609886 19.685916
LeftArm 44.568260 -50.090331 -95.521742
LeftForeArm 25.169193 0.000000 104.691550
LeftHand 31.574193 0.000000 28.582355
LeftHandThumb1 -26.253704 0.000000 33.147579
RightShoulder -49.023670 -52.836974 20.046671
RightArm 33.266078 18.809268 103.026162
RightForeArm 112.491964 -0.000000 -12.810044
RightHand 8.216910 -0.000000 16.340220
RightHandThumb1 -24.326973 -0.000000 -32.862282
LeftUpLeg -70.322123 9.447390 7.026984
LeftLeg 19.169453 -0.000000 -0.000000
LeftFoot -20.381375 15.367854 -4.459723
LeftToeBase -0.208105 -0.000000 0.000000
RightUpLeg -16.492522 -3.696287 -11.895542
RightLeg 125.924988 -0.000000 -0.000000
RightFoot 39.324681 29.115521 -2.763504
RightToeBase 20.269474 -0.000000 -0.000000
1429
root 1.772901 33.028079 4.814893 74.501428 -27.654330 -17.017722
Spine -43.824858 -14.366638 11.241811
Head -10.297557 16.861116 17.448311
LeftShoulder -19.438647 42.580075 19.775721
LeftArm 44.419550 -49.792516 -95.379303
LeftForeArm 25.499161 -0.000000 104.744529
LeftHand 31.319930 -0.000000 28.863411
LeftHandThumb1 -26.253704 0.000000 33.147579
RightShoulder -49.475873 -52.773594 20.817707
RightArm 33.025465 18.994898 102.980446
RightForeArm 113.087853 -0.000000 -12.771492
RightHand 8.405648 -0.000000 16.731385
RightHandThumb1 -24.326973 -0.000000 -32.862282
LeftUpLeg -70.829397 10.196587 4.571728
LeftLeg 19.293209 -0.000000 -0.000000
LeftFoot -20.420987 16.906301 -4.420223
LeftToeBase 0.711933 -0.000000 -0.000000
RightUpLeg -16.158531 -4.877990 -11.061812
RightLeg 125.474250 -0.000000 -0.000000
RightFoot 39.965160 29.076492 -2.227011
RightToeBase 20.201996 -0.000000 -0.000000
